<?xml version="1.0"?>
<svg xmlns="http://www.w3.org/2000/svg" xmlns:xlink="http://www.w3.org/1999/xlink" xmlns:svgjs="http://svgjs.com/svgjs" version="1.1" width="512" height="512" x="0" y="0" viewBox="0 0 512 512" style="enable-background:new 0 0 512 512" xml:space="preserve" class=""><g transform="matrix(1,0,0,1,2.8421709430404007e-13,4.547473508864641e-13)"><g xmlns="http://www.w3.org/2000/svg"><path d="m256 512c-24.517 0-47.082-12.949-59.602-33.603-10.256 5.613-21.935 8.643-33.648 8.643-12.163 0-24.18-3.228-34.752-9.336-21.232-12.26-34.296-34.754-34.807-58.9-24.281-.521-46.748-13.757-58.897-34.805-12.258-21.229-12.327-47.237-.701-68.401-8.819-5.341-16.362-12.582-22.094-21.267-7.521-11.376-11.499-24.633-11.499-38.331 0-24.517 12.949-47.082 33.603-59.601-5.613-10.257-8.643-21.935-8.643-33.649 0-6.548.925-13.042 2.75-19.3 1.159-3.976 5.323-6.26 9.3-5.101 3.977 1.16 6.26 5.323 5.101 9.3-1.427 4.893-2.15 9.974-2.15 15.1 0 11.451 3.686 22.857 10.378 32.117 1.321 1.828 1.75 4.154 1.167 6.333s-2.117 3.98-4.174 4.903c-19.642 8.814-32.332 28.4-32.332 49.898 0 10.747 3.118 21.143 9.016 30.063 5.75 8.712 13.81 15.569 23.315 19.834 2.058.923 3.59 2.724 4.174 4.902.583 2.179.156 4.504-1.165 6.332-12.605 17.448-13.804 40.751-3.054 59.367 9.728 16.852 27.888 27.321 47.395 27.321 1.898 0 3.762-.094 5.542-.28 2.245-.235 4.479.556 6.076 2.151 1.599 1.595 2.393 3.826 2.163 6.073-2.194 21.415 8.419 42.199 27.04 52.951 8.295 4.792 17.717 7.325 27.25 7.325 11.451 0 22.856-3.686 32.116-10.379 1.828-1.321 4.154-1.75 6.333-1.166 2.179.583 3.979 2.116 4.903 4.174 8.812 19.641 28.398 32.332 49.896 32.332 10.747 0 21.143-3.118 30.063-9.016 8.712-5.749 15.568-13.81 19.834-23.315.923-2.058 2.724-3.591 4.902-4.174 2.179-.584 4.504-.156 6.332 1.165 17.448 12.605 40.752 13.804 59.367 3.054 16.852-9.728 27.32-27.888 27.32-47.395 0-1.901-.094-3.766-.279-5.542-.234-2.246.556-4.479 2.151-6.077s3.823-2.393 6.073-2.163c21.412 2.195 42.198-8.42 52.95-27.04 4.792-8.295 7.325-17.718 7.325-27.25 0-11.451-3.686-22.857-10.378-32.117-1.321-1.828-1.75-4.154-1.167-6.333s2.117-3.98 4.174-4.903c19.643-8.81 32.333-28.396 32.333-49.894 0-10.747-3.118-21.143-9.016-30.063-5.75-8.712-13.81-15.569-23.315-19.834-2.058-.923-3.59-2.724-4.174-4.902-.583-2.179-.156-4.504 1.165-6.332 12.605-17.448 13.804-40.751 3.054-59.367-9.728-16.852-27.888-27.321-47.395-27.321-1.898 0-3.762.094-5.542.28-2.247.233-4.478-.556-6.076-2.151-1.599-1.595-2.393-3.826-2.163-6.073 2.194-21.415-8.419-42.199-27.04-52.951-8.295-4.792-17.717-7.325-27.25-7.325-11.451 0-22.856 3.686-32.116 10.379-1.827 1.321-4.152 1.75-6.333 1.166-2.179-.583-3.979-2.116-4.903-4.174-8.812-19.641-28.398-32.332-49.896-32.332-10.747 0-21.143 3.118-30.063 9.016-8.712 5.749-15.568 13.81-19.834 23.315-.923 2.058-2.724 3.591-4.902 4.174-2.177.584-4.503.156-6.332-1.165-17.447-12.605-40.751-13.804-59.367-3.054-16.852 9.728-27.32 27.888-27.32 47.395 0 1.901.094 3.766.279 5.542.234 2.246-.556 4.479-2.151 6.077-1.596 1.598-3.826 2.392-6.073 2.162-16.645-1.709-33.479 4.454-45.024 16.482-2.868 2.988-7.616 3.086-10.604.218s-3.086-7.616-.218-10.604c12.735-13.269 30.51-20.939 48.807-21.356.516-24.286 13.752-46.756 34.802-58.908 21.229-12.259 47.237-12.327 68.401-.7 5.341-8.82 12.582-16.362 21.268-22.094 11.376-7.522 24.633-11.5 38.331-11.5 24.517 0 47.082 12.949 59.602 33.603 10.256-5.613 21.935-8.643 33.648-8.643 12.163 0 24.18 3.228 34.752 9.336 21.232 12.26 34.296 34.754 34.807 58.9 24.281.521 46.748 13.757 58.897 34.805 12.258 21.229 12.327 47.237.701 68.401 8.819 5.341 16.362 12.582 22.094 21.267 7.521 11.376 11.499 24.633 11.499 38.331 0 24.517-12.949 47.082-33.603 59.601 5.613 10.257 8.643 21.935 8.643 33.649 0 12.163-3.229 24.179-9.336 34.752-12.26 21.231-34.757 34.295-58.9 34.807-.521 24.281-13.756 46.748-34.804 58.897-21.229 12.258-47.238 12.327-68.401.7-5.341 8.82-12.582 16.362-21.268 22.094-11.376 7.522-24.633 11.5-38.331 11.5z" fill="#beaa73" data-original="#000000" style="" class=""/><path d="m259.376 446.92c-105.273 0-190.92-85.646-190.92-190.92s85.646-190.92 190.92-190.92 190.92 85.646 190.92 190.92-85.646 190.92-190.92 190.92zm0-366.84c-97.002 0-175.92 78.917-175.92 175.92s78.917 175.92 175.92 175.92 175.92-78.917 175.92-175.92-78.917-175.92-175.92-175.92z" fill="#beaa73" data-original="#000000" style="" class=""/><path d="m222.461 381.226c-9.647.001-18.619-5.07-23.608-13.418l-58.9-98.519c-7.787-13.023-3.527-29.96 9.496-37.754l29.713-17.762c6.314-3.775 13.72-4.866 20.847-3.072 7.13 1.795 13.136 6.264 16.911 12.583l22.835 38.191 55.286-111.536c6.753-13.602 23.303-19.175 36.895-12.427l31.013 15.357c6.596 3.271 11.52 8.91 13.869 15.88s1.841 14.438-1.43 21.027l-21.728 43.826c-1.84 3.711-6.338 5.228-10.051 3.388-3.711-1.84-5.228-6.34-3.388-10.051l21.73-43.83c1.49-3.001 1.721-6.398.652-9.57-1.069-3.173-3.312-5.74-6.315-7.23l-31.016-15.358c-6.189-3.074-13.722-.535-16.794 5.654l-61.388 123.846c-2.393 5.234-10.353 5.55-13.157.518l-29.89-49.99c-1.721-2.881-4.454-4.916-7.697-5.732s-6.612-.319-9.488 1.4l-29.71 17.76c-5.925 3.546-7.865 11.256-4.321 17.184l58.9 98.52c2.359 3.947 6.668 6.286 11.235 6.104l41.753-1.64c4.585-.181 8.693-2.844 10.72-6.948l51.475-103.83c1.84-3.711 6.34-5.229 10.051-3.388 3.711 1.84 5.229 6.34 3.389 10.051l-51.47 103.82c-4.458 9.024-13.492 14.884-23.574 15.283l-41.752 1.64c-.365.016-.73.023-1.093.023z" fill="#beaa73" data-original="#000000" style="" class=""/></g></g></svg>
